<mxGraphModel dx="1426" dy="775" grid="1" gridSize="10" guides="1" tooltips="1" connect="1" arrows="1" fold="1" page="1" pageScale="1" pageWidth="1169" pageHeight="827" math="0" shadow="0">
  <root>
    <mxCell id="0"/>
    <mxCell id="1" parent="0"/>
    
    <!-- AWS Cloud -->
    <mxCell id="aws-cloud" value="AWS Cloud" style="points=[[0,0],[0.25,0],[0.5,0],[0.75,0],[1,0],[1,0.25],[1,0.5],[1,0.75],[1,1],[0.75,1],[0.5,1],[0.25,1],[0,1],[0,0.75],[0,0.5],[0,0.25]];outlineConnect=0;gradientColor=none;html=1;whiteSpace=wrap;fontSize=12;fontStyle=0;container=1;pointerEvents=0;collapsible=0;recursiveResize=0;shape=mxgraph.aws4.group;grIcon=mxgraph.aws4.group_aws_cloud_alt;strokeColor=#232F3E;fillColor=none;verticalAlign=top;align=left;spacingLeft=30;fontColor=#232F3E;dashed=0;" vertex="1" parent="1">
      <mxGeometry x="40" y="40" width="900" height="600" as="geometry"/>
    </mxCell>
    
    <!-- VPC (Single AZ) -->
    <mxCell id="vpc" value="TechFeed VPC (Single AZ)" style="points=[[0,0],[0.25,0],[0.5,0],[0.75,0],[1,0],[1,0.25],[1,0.5],[1,0.75],[1,1],[0.75,1],[0.5,1],[0.25,1],[0,1],[0,0.75],[0,0.5],[0,0.25]];outlineConnect=0;gradientColor=none;html=1;whiteSpace=wrap;fontSize=12;fontStyle=0;container=1;pointerEvents=0;collapsible=0;recursiveResize=0;shape=mxgraph.aws4.group;grIcon=mxgraph.aws4.group_vpc;strokeColor=#248814;fillColor=none;verticalAlign=top;align=left;spacingLeft=30;fontColor=#232F3E;dashed=0;" vertex="1" parent="aws-cloud">
      <mxGeometry x="40" y="80" width="600" height="480" as="geometry"/>
    </mxCell>
    
    <!-- Single Public Subnet -->
    <mxCell id="public-subnet" value="Public Subnet (All Services)" style="fillColor=#d5e8d4;strokeColor=#82b366;dashed=0;verticalAlign=top;fontStyle=0;fontColor=#000000;whiteSpace=wrap;html=1;" vertex="1" parent="vpc">
      <mxGeometry x="40" y="40" width="520" height="420" as="geometry"/>
    </mxCell>
    
    <!-- Application Load Balancer -->
    <mxCell id="alb" value="Application Load Balancer" style="sketch=0;points=[[0,0,0],[0.25,0,0],[0.5,0,0],[0.75,0,0],[1,0,0],[0,1,0],[0.25,1,0],[0.5,1,0],[0.75,1,0],[1,1,0]];outlineConnect=0;fontColor=#232F3E;gradientColor=#F78E04;gradientDirection=north;fillColor=#D05C17;strokeColor=#ffffff;dashed=0;verticalAlign=top;align=center;html=1;fontSize=12;fontStyle=0;aspect=fixed;shape=mxgraph.aws4.resourceIcon;resIcon=mxgraph.aws4.elastic_load_balancing;" vertex="1" parent="public-subnet">
      <mxGeometry x="80" y="40" width="50" height="50" as="geometry"/>
    </mxCell>
    
    <!-- Single API Server (Fargate) -->
    <mxCell id="fargate" value="API Server (Fargate)" style="sketch=0;points=[[0,0,0],[0.25,0,0],[0.5,0,0],[0.75,0,0],[1,0,0],[0,1,0],[0.25,1,0],[0.5,1,0],[0.75,1,0],[1,1,0]];outlineConnect=0;fontColor=#232F3E;gradientColor=#F78E04;gradientDirection=north;fillColor=#D05C17;strokeColor=#ffffff;dashed=0;verticalAlign=top;align=center;html=1;fontSize=12;fontStyle=0;aspect=fixed;shape=mxgraph.aws4.resourceIcon;resIcon=mxgraph.aws4.fargate;" vertex="1" parent="public-subnet">
      <mxGeometry x="200" y="40" width="50" height="50" as="geometry"/>
    </mxCell>
    
    <!-- RDS PostgreSQL -->
    <mxCell id="rds" value="RDS PostgreSQL (t3.micro)" style="sketch=0;points=[[0,0,0],[0.25,0,0],[0.5,0,0],[0.75,0,0],[1,0,0],[0,1,0],[0.25,1,0],[0.5,1,0],[0.75,1,0],[1,1,0]];outlineConnect=0;fontColor=#232F3E;gradientColor=#4D72F3;gradientDirection=north;fillColor=#3334B9;strokeColor=#ffffff;dashed=0;verticalAlign=top;align=center;html=1;fontSize=12;fontStyle=0;aspect=fixed;shape=mxgraph.aws4.resourceIcon;resIcon=mxgraph.aws4.rds;" vertex="1" parent="public-subnet">
      <mxGeometry x="80" y="140" width="50" height="50" as="geometry"/>
    </mxCell>
    
    <!-- ElastiCache Redis -->
    <mxCell id="redis" value="ElastiCache Redis (t3.micro)" style="sketch=0;points=[[0,0,0],[0.25,0,0],[0.5,0,0],[0.75,0,0],[1,0,0],[0,1,0],[0.25,1,0],[0.5,1,0],[0.75,1,0],[1,1,0]];outlineConnect=0;fontColor=#232F3E;gradientColor=#4D72F3;gradientDirection=north;fillColor=#3334B9;strokeColor=#ffffff;dashed=0;verticalAlign=top;align=center;html=1;fontSize=12;fontStyle=0;aspect=fixed;shape=mxgraph.aws4.resourceIcon;resIcon=mxgraph.aws4.elasticache;" vertex="1" parent="public-subnet">
      <mxGeometry x="200" y="140" width="50" height="50" as="geometry"/>
    </mxCell>
    
    <!-- Lambda Function -->
    <mxCell id="lambda" value="RSS Fetcher Lambda" style="sketch=0;points=[[0,0,0],[0.25,0,0],[0.5,0,0],[0.75,0,0],[1,0,0],[0,1,0],[0.25,1,0],[0.5,1,0],[0.75,1,0],[1,1,0]];outlineConnect=0;fontColor=#232F3E;gradientColor=#F78E04;gradientDirection=north;fillColor=#D05C17;strokeColor=#ffffff;dashed=0;verticalAlign=top;align=center;html=1;fontSize=12;fontStyle=0;aspect=fixed;shape=mxgraph.aws4.resourceIcon;resIcon=mxgraph.aws4.lambda;" vertex="1" parent="public-subnet">
      <mxGeometry x="320" y="140" width="50" height="50" as="geometry"/>
    </mxCell>
    
    <!-- Internet Gateway -->
    <mxCell id="igw" value="Internet Gateway" style="sketch=0;points=[[0,0,0],[0.25,0,0],[0.5,0,0],[0.75,0,0],[1,0,0],[0,1,0],[0.25,1,0],[0.5,1,0],[0.75,1,0],[1,1,0]];outlineConnect=0;fontColor=#232F3E;gradientColor=#4D72F3;gradientDirection=north;fillColor=#3334B9;strokeColor=#ffffff;dashed=0;verticalAlign=top;align=center;html=1;fontSize=12;fontStyle=0;aspect=fixed;shape=mxgraph.aws4.resourceIcon;resIcon=mxgraph.aws4.internet_gateway;" vertex="1" parent="public-subnet">
      <mxGeometry x="140" y="240" width="50" height="50" as="geometry"/>
    </mxCell>
    
    <!-- ECR API Repository -->
    <mxCell id="ecr-api" value="ECR API Repository" style="sketch=0;points=[[0,0,0],[0.25,0,0],[0.5,0,0],[0.75,0,0],[1,0,0],[0,1,0],[0.25,1,0],[0.5,1,0],[0.75,1,0],[1,1,0]];outlineConnect=0;fontColor=#232F3E;gradientColor=#F78E04;gradientDirection=north;fillColor=#D05C17;strokeColor=#ffffff;dashed=0;verticalAlign=top;align=center;html=1;fontSize=12;fontStyle=0;aspect=fixed;shape=mxgraph.aws4.resourceIcon;resIcon=mxgraph.aws4.ecr;" vertex="1" parent="aws-cloud">
      <mxGeometry x="680" y="120" width="50" height="50" as="geometry"/>
    </mxCell>
    
    <!-- ECR RSS Repository -->
    <mxCell id="ecr-rss" value="ECR RSS Repository" style="sketch=0;points=[[0,0,0],[0.25,0,0],[0.5,0,0],[0.75,0,0],[1,0,0],[0,1,0],[0.25,1,0],[0.5,1,0],[0.75,1,0],[1,1,0]];outlineConnect=0;fontColor=#232F3E;gradientColor=#F78E04;gradientDirection=north;fillColor=#D05C17;strokeColor=#ffffff;dashed=0;verticalAlign=top;align=center;html=1;fontSize=12;fontStyle=0;aspect=fixed;shape=mxgraph.aws4.resourceIcon;resIcon=mxgraph.aws4.ecr;" vertex="1" parent="aws-cloud">
      <mxGeometry x="680" y="200" width="50" height="50" as="geometry"/>
    </mxCell>
    
    <!-- EventBridge -->
    <mxCell id="eventbridge" value="EventBridge (3h Schedule)" style="sketch=0;points=[[0,0,0],[0.25,0,0],[0.5,0,0],[0.75,0,0],[1,0,0],[0,1,0],[0.25,1,0],[0.5,1,0],[0.75,1,0],[1,1,0]];outlineConnect=0;fontColor=#232F3E;gradientColor=#FF4F8B;gradientDirection=north;fillColor=#BC1356;strokeColor=#ffffff;dashed=0;verticalAlign=top;align=center;html=1;fontSize=12;fontStyle=0;aspect=fixed;shape=mxgraph.aws4.resourceIcon;resIcon=mxgraph.aws4.eventbridge;" vertex="1" parent="aws-cloud">
      <mxGeometry x="680" y="280" width="50" height="50" as="geometry"/>
    </mxCell>
    
    <!-- S3 Bucket -->
    <mxCell id="s3" value="S3 Frontend Bucket" style="sketch=0;points=[[0,0,0],[0.25,0,0],[0.5,0,0],[0.75,0,0],[1,0,0],[0,1,0],[0.25,1,0],[0.5,1,0],[0.75,1,0],[1,1,0]];outlineConnect=0;fontColor=#232F3E;gradientColor=#60A337;gradientDirection=north;fillColor=#277116;strokeColor=#ffffff;dashed=0;verticalAlign=top;align=center;html=1;fontSize=12;fontStyle=0;aspect=fixed;shape=mxgraph.aws4.resourceIcon;resIcon=mxgraph.aws4.s3;" vertex="1" parent="aws-cloud">
      <mxGeometry x="680" y="360" width="50" height="50" as="geometry"/>
    </mxCell>
    
    <!-- CloudFront -->
    <mxCell id="cloudfront" value="CloudFront Distribution" style="sketch=0;points=[[0,0,0],[0.25,0,0],[0.5,0,0],[0.75,0,0],[1,0,0],[0,1,0],[0.25,1,0],[0.5,1,0],[0.75,1,0],[1,1,0]];outlineConnect=0;fontColor=#232F3E;gradientColor=#945DF2;gradientDirection=north;fillColor=#5A30B5;strokeColor=#ffffff;dashed=0;verticalAlign=top;align=center;html=1;fontSize=12;fontStyle=0;aspect=fixed;shape=mxgraph.aws4.resourceIcon;resIcon=mxgraph.aws4.cloudfront;" vertex="1" parent="aws-cloud">
      <mxGeometry x="680" y="440" width="50" height="50" as="geometry"/>
    </mxCell>
    
    <!-- Users/Internet -->
    <mxCell id="users" value="Users" style="sketch=0;points=[[0,0,0],[0.25,0,0],[0.5,0,0],[0.75,0,0],[1,0,0],[0,1,0],[0.25,1,0],[0.5,1,0],[0.75,1,0],[1,1,0]];outlineConnect=0;fontColor=#232F3E;gradientColor=#60A337;gradientDirection=north;fillColor=#277116;strokeColor=#ffffff;dashed=0;verticalAlign=top;align=center;html=1;fontSize=12;fontStyle=0;aspect=fixed;shape=mxgraph.aws4.resourceIcon;resIcon=mxgraph.aws4.users;" vertex="1" parent="1">
      <mxGeometry x="500" y="0" width="50" height="50" as="geometry"/>
    </mxCell>
    
    <!-- CICD Pipeline Section -->
    <mxCell id="cicd-section" value="CI/CD Pipeline" style="fillColor=#fff2cc;strokeColor=#d6b656;dashed=1;verticalAlign=top;fontStyle=1;fontColor=#333333;whiteSpace=wrap;html=1;" vertex="1" parent="1">
      <mxGeometry x="40" y="680" width="900" height="120" as="geometry"/>
    </mxCell>
    
    <!-- GitHub Repository -->
    <mxCell id="github" value="GitHub Repository" style="shape=image;verticalLabelPosition=bottom;labelBackgroundColor=default;verticalAlign=top;aspect=fixed;imageAspect=0;image=data:image/svg+xml,PHN2ZyB4bWxucz0iaHR0cDovL3d3dy53My5vcmcvMjAwMC9zdmciIHZpZXdCb3g9IjAgMCA0OTYgNTEyIj48cGF0aCBmaWxsPSIjMjQyOTJlIiBkPSJNMTY1LjkgMzk3LjRjMCAyLTIuMyAzLjYtNS4yIDMuNi0zLjMuMy01LjYtMS4zLTUuNi0zLjYgMC0yIDIuMy0zLjYgNS4yLTMuNiAzLS4zIDUuNiAxLjMgNS42IDMuNnptLTMxLjEtNC41Yy0uNyAyIDEuMyA0LjMgNC4zIDQuOS0yLjYgMS0yIDMuOSAyIDMuOSAyLjYtLjMgNS00LjMgNS00LjMuNy0uMy0yLjMtLjYtNS4yLS42LTMuMyAwLTUuNiAzLTUuNiAzem0tMzAuMy0uNGMuNyAyIDMuMyAyLjYgNS42IDEuMy4zLS43IDAtMS4zLS4zLTEuOC0uNy0yLTMuMy0yLjYtNS42LTEuMy0uMy43IDAgMS4zLjMgMS44em0yMC0yMC4xYy0uNyAyLTMuMyAyLjYtNS42IDEuMy0uMy0uNyAwLTEuMy4zLTEuOC43LTIgMy4zLTIuNiA1LjYtMS4zLjMuNyAwIDEuMy0uMyAxLjh6bTI3LjUtMTQuN2MtLjcgMi0zLjMgMi42LTUuNiAxLjMtLjMtLjctMC0xLjMuMy0xLjguNy0yIDMuMy0yLjYgNS42LTEuMy4zLjcgMCAxLjMtLjMgMS44em04LjktMTAuNmMwIDIuNi0yIDIuMy00IDEuNi0yLS43LTMuMy0yLjYtMy4zLTQuMy0uMy0yIDIuMy0yLjMgNCAxLjYgMi4zIDEgMy4zIDMgMy4zIDQuM3ptLTEyLjQtMjguNWMuNyAyIDMuMyAyLjYgNS42IDEuMy4zLS43IDAtMS4zLS4zLTEuOC0uNy0yLTMuMy0yLjYtNS42LTEuMy0uMy43IDAgMS4zLjMgMS44em0tNi4yLTI5LjZjLS43IDItMy4zIDIuNi01LjYgMS4zLS4zLS43IDAtMS4zLjMtMS44LjctMiAzLjMtMi42IDUuNi0xLjMuMy43IDAgMS4zLS4zIDEuOFoiLz48L3N2Zz4K;" vertex="1" parent="cicd-section">
      <mxGeometry x="80" y="30" width="50" height="50" as="geometry"/>
    </mxCell>
    
    <!-- GitHub Actions -->
    <mxCell id="github-actions" value="GitHub Actions" style="shape=image;verticalLabelPosition=bottom;labelBackgroundColor=default;verticalAlign=top;aspect=fixed;imageAspect=0;image=data:image/svg+xml,PHN2ZyB4bWxucz0iaHR0cDovL3d3dy53My5vcmcvMjAwMC9zdmciIHZpZXdCb3g9IjAgMCA0OTYgNTEyIj48cGF0aCBmaWxsPSIjMjA4OGZmIiBkPSJNMTY1LjkgMzk3LjRjMCAyLTIuMyAzLjYtNS4yIDMuNi0zLjMuMy01LjYtMS4zLTUuNi0zLjYgMC0yIDIuMy0zLjYgNS4yLTMuNiAzLS4zIDUuNiAxLjMgNS42IDMuNnptLTMxLjEtNC41Yy0uNyAyIDEuMyA0LjMgNC4zIDQuOS0yLjYgMS0yIDMuOSAyIDMuOSAyLjYtLjMgNS00LjMgNS00LjMuNy0uMy0yLjMtLjYtNS4yLS42LTMuMyAwLTUuNiAzLTUuNiAzem0tMzAuMy0uNGMuNyAyIDMuMyAyLjYgNS42IDEuMy4zLS43IDAtMS4zLS4zLTEuOC0uNy0yLTMuMy0yLjYtNS42LTEuMy0uMy43IDAgMS4zLjMgMS44em0yMC0yMC4xYy0uNyAyLTMuMyAyLjYtNS42IDEuMy0uMy0uNyAwLTEuMy4zLTEuOC43LTIgMy4zLTIuNiA1LjYtMS4zLjMuNyAwIDEuMy0uMyAxLjh6bTI3LjUtMTQuN2MtLjcgMi0zLjMgMi42LTUuNiAxLjMtLjMtLjctMC0xLjMuMy0xLjguNy0yIDMuMy0yLjYgNS42LTEuMy4zLjcgMCAxLjMtLjMgMS44em04LjktMTAuNmMwIDIuNi0yIDIuMy00IDEuNi0yLS43LTMuMy0yLjYtMy4zLTQuMy0uMy0yIDIuMy0yLjMgNCAxLjYgMi4zIDEgMy4zIDMgMy4zIDQuM3ptLTEyLjQtMjguNWMuNyAyIDMuMyAyLjYgNS42IDEuMy4zLS43IDAtMS4zLS4zLTEuOC0uNy0yLTMuMy0yLjYtNS42LTEuMy0uMy43IDAgMS4zLjMgMS44em0tNi4yLTI5LjZjLS43IDItMy4zIDIuNi01LjYgMS4zLS4zLS43IDAtMS4zLjMtMS44LjctMiAzLjMtMi42IDUuNi0xLjMuMy43IDAgMS4zLS4zIDEuOFoiLz48L3N2Zz4K;" vertex="1" parent="cicd-section">
      <mxGeometry x="200" y="30" width="50" height="50" as="geometry"/>
    </mxCell>
    
    <!-- AWS OIDC -->
    <mxCell id="oidc" value="AWS OIDC" style="sketch=0;points=[[0,0,0],[0.25,0,0],[0.5,0,0],[0.75,0,0],[1,0,0],[0,1,0],[0.25,1,0],[0.5,1,0],[0.75,1,0],[1,1,0]];outlineConnect=0;fontColor=#232F3E;gradientColor=#4D72F3;gradientDirection=north;fillColor=#3334B9;strokeColor=#ffffff;dashed=0;verticalAlign=top;align=center;html=1;fontSize=12;fontStyle=0;aspect=fixed;shape=mxgraph.aws4.resourceIcon;resIcon=mxgraph.aws4.identity_and_access_management_iam;" vertex="1" parent="cicd-section">
      <mxGeometry x="320" y="30" width="50" height="50" as="geometry"/>
    </mxCell>
    
    <!-- Build Process Icons -->
    <mxCell id="java-build" value="Java Build" style="sketch=0;points=[[0,0,0],[0.25,0,0],[0.5,0,0],[0.75,0,0],[1,0,0],[0,1,0],[0.25,1,0],[0.5,1,0],[0.75,1,0],[1,1,0]];outlineConnect=0;fontColor=#232F3E;gradientColor=#F78E04;gradientDirection=north;fillColor=#D05C17;strokeColor=#ffffff;dashed=0;verticalAlign=top;align=center;html=1;fontSize=12;fontStyle=0;aspect=fixed;shape=mxgraph.aws4.resourceIcon;resIcon=mxgraph.aws4.codebuild;" vertex="1" parent="cicd-section">
      <mxGeometry x="440" y="30" width="50" height="50" as="geometry"/>
    </mxCell>
    
    <mxCell id="node-build" value="Node.js Build" style="sketch=0;points=[[0,0,0],[0.25,0,0],[0.5,0,0],[0.75,0,0],[1,0,0],[0,1,0],[0.25,1,0],[0.5,1,0],[0.75,1,0],[1,1,0]];outlineConnect=0;fontColor=#232F3E;gradientColor=#F78E04;gradientDirection=north;fillColor=#D05C17;strokeColor=#ffffff;dashed=0;verticalAlign=top;align=center;html=1;fontSize=12;fontStyle=0;aspect=fixed;shape=mxgraph.aws4.resourceIcon;resIcon=mxgraph.aws4.codebuild;" vertex="1" parent="cicd-section">
      <mxGeometry x="520" y="30" width="50" height="50" as="geometry"/>
    </mxCell>
    
    <mxCell id="docker-build" value="Docker Build" style="sketch=0;points=[[0,0,0],[0.25,0,0],[0.5,0,0],[0.75,0,0],[1,0,0],[0,1,0],[0.25,1,0],[0.5,1,0],[0.75,1,0],[1,1,0]];outlineConnect=0;fontColor=#232F3E;gradientColor=#F78E04;gradientDirection=north;fillColor=#D05C17;strokeColor=#ffffff;dashed=0;verticalAlign=top;align=center;html=1;fontSize=12;fontStyle=0;aspect=fixed;shape=mxgraph.aws4.resourceIcon;resIcon=mxgraph.aws4.codebuild;" vertex="1" parent="cicd-section">
      <mxGeometry x="600" y="30" width="50" height="50" as="geometry"/>
    </mxCell>
    
    <mxCell id="cdk-deploy" value="CDK Deploy" style="sketch=0;points=[[0,0,0],[0.25,0,0],[0.5,0,0],[0.75,0,0],[1,0,0],[0,1,0],[0.25,1,0],[0.5,1,0],[0.75,1,0],[1,1,0]];outlineConnect=0;fontColor=#232F3E;gradientColor=#F78E04;gradientDirection=north;fillColor=#D05C17;strokeColor=#ffffff;dashed=0;verticalAlign=top;align=center;html=1;fontSize=12;fontStyle=0;aspect=fixed;shape=mxgraph.aws4.resourceIcon;resIcon=mxgraph.aws4.cloudformation;" vertex="1" parent="cicd-section">
      <mxGeometry x="680" y="30" width="50" height="50" as="geometry"/>
    </mxCell>
    
    <mxCell id="s3-deploy" value="S3 Deploy" style="sketch=0;points=[[0,0,0],[0.25,0,0],[0.5,0,0],[0.75,0,0],[1,0,0],[0,1,0],[0.25,1,0],[0.5,1,0],[0.75,1,0],[1,1,0]];outlineConnect=0;fontColor=#232F3E;gradientColor=#60A337;gradientDirection=north;fillColor=#277116;strokeColor=#ffffff;dashed=0;verticalAlign=top;align=center;html=1;fontSize=12;fontStyle=0;aspect=fixed;shape=mxgraph.aws4.resourceIcon;resIcon=mxgraph.aws4.s3;" vertex="1" parent="cicd-section">
      <mxGeometry x="760" y="30" width="50" height="50" as="geometry"/>
    </mxCell>
    
    <!-- Connections -->
    <!-- Users to CloudFront -->
    <mxCell id="edge1" style="edgeStyle=orthogonalEdgeStyle;rounded=0;orthogonalLoop=1;jettySize=auto;html=1;startArrow=none;startFill=0;endArrow=classic;endFill=1;" edge="1" parent="1" source="users" target="cloudfront">
      <mxGeometry relative="1" as="geometry"/>
    </mxCell>
    
    <!-- CloudFront to S3 -->
    <mxCell id="edge2" style="edgeStyle=orthogonalEdgeStyle;rounded=0;orthogonalLoop=1;jettySize=auto;html=1;startArrow=none;startFill=0;endArrow=classic;endFill=1;" edge="1" parent="1" source="cloudfront" target="s3">
      <mxGeometry relative="1" as="geometry"/>
    </mxCell>
    
    <!-- Users to Internet Gateway (for API) -->
    <mxCell id="edge3" style="edgeStyle=orthogonalEdgeStyle;rounded=0;orthogonalLoop=1;jettySize=auto;html=1;startArrow=none;startFill=0;endArrow=classic;endFill=1;strokeColor=#FF8000;" edge="1" parent="1" source="users" target="igw">
      <mxGeometry relative="1" as="geometry"/>
    </mxCell>
    
    <!-- Internet Gateway to ALB -->
    <mxCell id="edge4" style="edgeStyle=orthogonalEdgeStyle;rounded=0;orthogonalLoop=1;jettySize=auto;html=1;startArrow=none;startFill=0;endArrow=classic;endFill=1;" edge="1" parent="1" source="igw" target="alb">
      <mxGeometry relative="1" as="geometry"/>
    </mxCell>
    
    <!-- ALB to Fargate -->
    <mxCell id="edge5" style="edgeStyle=orthogonalEdgeStyle;rounded=0;orthogonalLoop=1;jettySize=auto;html=1;startArrow=none;startFill=0;endArrow=classic;endFill=1;" edge="1" parent="1" source="alb" target="fargate">
      <mxGeometry relative="1" as="geometry"/>
    </mxCell>
    
    <!-- Fargate to RDS -->
    <mxCell id="edge6" style="edgeStyle=orthogonalEdgeStyle;rounded=0;orthogonalLoop=1;jettySize=auto;html=1;startArrow=none;startFill=0;endArrow=classic;endFill=1;" edge="1" parent="1" source="fargate" target="rds">
      <mxGeometry relative="1" as="geometry"/>
    </mxCell>
    
    <!-- Fargate to Redis -->
    <mxCell id="edge7" style="edgeStyle=orthogonalEdgeStyle;rounded=0;orthogonalLoop=1;jettySize=auto;html=1;startArrow=none;startFill=0;endArrow=classic;endFill=1;" edge="1" parent="1" source="fargate" target="redis">
      <mxGeometry relative="1" as="geometry"/>
    </mxCell>
    
    <!-- EventBridge to Lambda -->
    <mxCell id="edge8" style="edgeStyle=orthogonalEdgeStyle;rounded=0;orthogonalLoop=1;jettySize=auto;html=1;startArrow=none;startFill=0;endArrow=classic;endFill=1;" edge="1" parent="1" source="eventbridge" target="lambda">
      <mxGeometry relative="1" as="geometry"/>
    </mxCell>
    
    <!-- Lambda to RDS -->
    <mxCell id="edge9" style="edgeStyle=orthogonalEdgeStyle;rounded=0;orthogonalLoop=1;jettySize=auto;html=1;startArrow=none;startFill=0;endArrow=classic;endFill=1;" edge="1" parent="1" source="lambda" target="rds">
      <mxGeometry relative="1" as="geometry"/>
    </mxCell>
    
    <!-- Lambda to Redis -->
    <mxCell id="edge10" style="edgeStyle=orthogonalEdgeStyle;rounded=0;orthogonalLoop=1;jettySize=auto;html=1;startArrow=none;startFill=0;endArrow=classic;endFill=1;" edge="1" parent="1" source="lambda" target="redis">
      <mxGeometry relative="1" as="geometry"/>
    </mxCell>
    
    <!-- ECR to Fargate -->
    <mxCell id="edge11" style="edgeStyle=orthogonalEdgeStyle;rounded=0;orthogonalLoop=1;jettySize=auto;html=1;startArrow=none;startFill=0;endArrow=classic;endFill=1;dashed=1;" edge="1" parent="1" source="ecr-api" target="fargate">
      <mxGeometry relative="1" as="geometry"/>
    </mxCell>
    
    <!-- ECR to Lambda -->
    <mxCell id="edge12" style="edgeStyle=orthogonalEdgeStyle;rounded=0;orthogonalLoop=1;jettySize=auto;html=1;startArrow=none;startFill=0;endArrow=classic;endFill=1;dashed=1;" edge="1" parent="1" source="ecr-rss" target="lambda">
      <mxGeometry relative="1" as="geometry"/>
    </mxCell>
    
    <!-- CICD Flow Connections -->
    <!-- GitHub to GitHub Actions -->
    <mxCell id="cicd-edge1" style="edgeStyle=orthogonalEdgeStyle;rounded=0;orthogonalLoop=1;jettySize=auto;html=1;startArrow=none;startFill=0;endArrow=classic;endFill=1;strokeColor=#666666;" edge="1" parent="1" source="github" target="github-actions">
      <mxGeometry relative="1" as="geometry"/>
    </mxCell>
    
    <!-- GitHub Actions to OIDC -->
    <mxCell id="cicd-edge2" style="edgeStyle=orthogonalEdgeStyle;rounded=0;orthogonalLoop=1;jettySize=auto;html=1;startArrow=none;startFill=0;endArrow=classic;endFill=1;strokeColor=#666666;" edge="1" parent="1" source="github-actions" target="oidc">
      <mxGeometry relative="1" as="geometry"/>
    </mxCell>
    
    <!-- GitHub Actions to Build Steps -->
    <mxCell id="cicd-edge3" style="edgeStyle=orthogonalEdgeStyle;rounded=0;orthogonalLoop=1;jettySize=auto;html=1;startArrow=none;startFill=0;endArrow=classic;endFill=1;strokeColor=#666666;" edge="1" parent="1" source="github-actions" target="java-build">
      <mxGeometry relative="1" as="geometry"/>
    </mxCell>
    
    <mxCell id="cicd-edge4" style="edgeStyle=orthogonalEdgeStyle;rounded=0;orthogonalLoop=1;jettySize=auto;html=1;startArrow=none;startFill=0;endArrow=classic;endFill=1;strokeColor=#666666;" edge="1" parent="1" source="java-build" target="node-build">
      <mxGeometry relative="1" as="geometry"/>
    </mxCell>
    
    <mxCell id="cicd-edge5" style="edgeStyle=orthogonalEdgeStyle;rounded=0;orthogonalLoop=1;jettySize=auto;html=1;startArrow=none;startFill=0;endArrow=classic;endFill=1;strokeColor=#666666;" edge="1" parent="1" source="node-build" target="docker-build">
      <mxGeometry relative="1" as="geometry"/>
    </mxCell>
    
    <mxCell id="cicd-edge6" style="edgeStyle=orthogonalEdgeStyle;rounded=0;orthogonalLoop=1;jettySize=auto;html=1;startArrow=none;startFill=0;endArrow=classic;endFill=1;strokeColor=#666666;" edge="1" parent="1" source="docker-build" target="cdk-deploy">
      <mxGeometry relative="1" as="geometry"/>
    </mxCell>
    
    <mxCell id="cicd-edge7" style="edgeStyle=orthogonalEdgeStyle;rounded=0;orthogonalLoop=1;jettySize=auto;html=1;startArrow=none;startFill=0;endArrow=classic;endFill=1;strokeColor=#666666;" edge="1" parent="1" source="cdk-deploy" target="s3-deploy">
      <mxGeometry relative="1" as="geometry"/>
    </mxCell>
    
    <!-- CICD to AWS Services -->
    <mxCell id="cicd-to-ecr1" style="edgeStyle=orthogonalEdgeStyle;rounded=0;orthogonalLoop=1;jettySize=auto;html=1;startArrow=none;startFill=0;endArrow=classic;endFill=1;strokeColor=#FF8000;dashed=1;" edge="1" parent="1" source="docker-build" target="ecr-api">
      <mxGeometry relative="1" as="geometry"/>
    </mxCell>
    
    <mxCell id="cicd-to-ecr2" style="edgeStyle=orthogonalEdgeStyle;rounded=0;orthogonalLoop=1;jettySize=auto;html=1;startArrow=none;startFill=0;endArrow=classic;endFill=1;strokeColor=#FF8000;dashed=1;" edge="1" parent="1" source="docker-build" target="ecr-rss">
      <mxGeometry relative="1" as="geometry"/>
    </mxCell>
    
    <mxCell id="cicd-to-s3" style="edgeStyle=orthogonalEdgeStyle;rounded=0;orthogonalLoop=1;jettySize=auto;html=1;startArrow=none;startFill=0;endArrow=classic;endFill=1;strokeColor=#FF8000;dashed=1;" edge="1" parent="1" source="s3-deploy" target="s3">
      <mxGeometry relative="1" as="geometry"/>
    </mxCell>
    
    <mxCell id="cicd-to-cloudfront" style="edgeStyle=orthogonalEdgeStyle;rounded=0;orthogonalLoop=1;jettySize=auto;html=1;startArrow=none;startFill=0;endArrow=classic;endFill=1;strokeColor=#FF8000;dashed=1;" edge="1" parent="1" source="s3-deploy" target="cloudfront">
      <mxGeometry relative="1" as="geometry"/>
    </mxCell>
    
  </root>
</mxGraphModel>